<?xml version="1.0" standalone="no"?><!DOCTYPE svg PUBLIC "-//W3C//DTD SVG 1.1//EN" "http://www.w3.org/Graphics/SVG/1.1/DTD/svg11.dtd"><svg t="1654480404635" class="icon" viewBox="0 0 4209 1024" version="1.1" xmlns="http://www.w3.org/2000/svg" p-id="3799" xmlns:xlink="http://www.w3.org/1999/xlink" width="822.0703125" height="200"><defs><style type="text/css">@font-face { font-family: feedback-iconfont; src: url("//at.alicdn.com/t/font_1031158_u69w8yhxdu.woff2?t=1630033759944") format("woff2"), url("//at.alicdn.com/t/font_1031158_u69w8yhxdu.woff?t=1630033759944") format("woff"), url("//at.alicdn.com/t/font_1031158_u69w8yhxdu.ttf?t=1630033759944") format("truetype"); }
</style></defs><path d="M0 0h4209.777778v1024H0z" fill="#1690FF" p-id="3800"></path><path d="M1319.395556 702.464c33.28 0 60.302222 26.567111 60.302222 59.306667 0 32.768-27.022222 59.335111-60.302222 59.335111-33.308444 0-60.302222-26.567111-60.302223-59.335111 0-32.739556 26.993778-59.306667 60.302223-59.306667zM1580.430222 227.555556v474.595555H1820.444444l-46.307555 118.641778h-314.311111V227.555556h120.604444z m500.224 24.149333c12.771556-32.170667 59.022222-32.170667 71.793778 0l225.592889 569.088h-130.019556L2116.551111 489.187556l-131.441778 331.605333h-130.048zM1178.851556 227.555556v593.237333h-120.604445V227.555556h120.604445z m-401.208889 197.745777c110.876444 0 201.045333 88.718222 201.045333 197.745778 0 109.027556-90.168889 197.745778-201.045333 197.745778H455.111111l47.303111-118.641778h275.228445c44.344889 0 80.412444-35.470222 80.412444-79.075555 0-43.662222-36.067556-79.132444-80.412444-79.132445H455.111111v-118.613333zM3470.222222 227.555556c157.098667 0 284.444444 127.345778 284.444445 284.444444s-127.345778 284.444444-284.444445 284.444444H2744.945778v-167.936c26.225778 34.986667 58.680889 53.077333 96.142222 53.077334 46.193778 0 83.057778-16.867556 109.226667-50.574222 24.376889-31.232 36.864-70.542222 36.864-117.987556 0-49.948444-12.515556-89.884444-37.461334-121.116444-27.477333-33.706667-64.938667-50.574222-112.355555-50.574223-42.467556 0-74.922667 14.364444-97.422222 43.064889v-34.332444H2673.777778V796.444444h-170.666667V455.111111a227.555556 227.555556 0 0 1 227.555556-227.555555h739.555555z m-37.290666 113.777777c-49.322667 0-88.661333 15.616-118.016 48.071111-29.952 31.857778-44.316444 72.419556-44.316445 122.368 0 49.322667 14.364444 89.884444 43.719111 121.116445 29.952 32.426667 69.290667 48.696889 118.613334 48.696889 48.696889 0 88.632889-16.241778 118.613333-48.696889 28.728889-31.232 43.690667-71.793778 43.690667-121.116445 0-49.948444-14.990222-90.538667-44.316445-122.368-29.980444-32.455111-69.290667-48.071111-117.987555-48.071111z m-230.997334 0c-19.968 0-36.835556 5.632-51.2 17.493334-11.861333 8.732444-21.845333 21.219556-30.577778 37.432889v-46.193778h-70.542222v322.759111h70.542222v-171.036445c0-27.477333 8.106667-49.322667 25.6-66.190222 14.961778-14.990222 31.829333-21.845333 50.545778-21.845333a153.6 153.6 0 0 1 46.222222 6.855111v-71.168c-11.264-5.603556-24.974222-8.106667-40.590222-8.106667z m-375.182222 57.457778c31.203556 0 54.300444 11.207111 69.262222 33.678222 11.861333 18.744889 18.119111 45.596444 18.119111 80.554667 0 34.958222-6.855111 61.809778-19.968 80.497778-14.990222 19.996444-38.712889 30.606222-69.944889 30.606222-23.096889 0-41.813333-9.358222-56.803555-28.074667-16.839111-20.622222-24.974222-48.071111-24.974222-81.777777v-5.006223c0-32.455111 6.257778-58.055111 19.996444-77.425777 14.961778-22.471111 36.209778-33.080889 64.284445-33.080889z m606.151111 0.597333c29.354667 0 52.451556 11.235556 68.693333 34.986667 13.738667 19.968 21.219556 46.165333 21.219556 77.368889 0 30.606222-7.480889 56.206222-21.219556 76.8-16.213333 23.096889-39.338667 34.986667-68.664888 34.986667-29.980444 0-52.451556-11.889778-68.693334-34.986667-13.738667-19.968-20.593778-45.568-20.593778-76.8 0-31.203556 6.855111-57.400889 20.593778-77.368889 16.241778-23.751111 38.712889-34.986667 68.693334-34.986667zM937.642667 227.555556l-47.900445 118.641777H455.111111V227.555556h482.503111z" fill="#FFFFFF" p-id="3801"></path></svg>